<svg width="166" height="35" viewBox="0 0 166 35" fill="none" xmlns="http://www.w3.org/2000/svg">
<path d="M20.5526 26.5397C19.7281 26.5254 19.0598 26.2449 18.5083 25.6858L16.4903 23.6493C15.8767 23.0312 15.2628 22.4131 14.6486 21.795L12.8555 19.9871L10.9974 18.1152L9.23655 16.3406L7.34258 14.4353C6.75503 13.8438 6.16807 13.2522 5.58173 12.6607C5.45816 12.536 5.33005 12.4146 5.21829 12.2815C4.25337 11.1573 4.30379 9.42496 5.33232 8.36198C5.80855 7.85427 6.45405 7.54726 7.14133 7.50159C7.99768 7.43668 8.73909 7.70788 9.3533 8.31655C10.0379 8.9943 10.7107 9.6841 11.389 10.3679L13.2789 12.2727C13.7965 12.7932 14.3138 13.3137 14.8308 13.8345C15.5252 14.5345 16.2195 15.2348 16.9137 15.9354L18.6909 17.7262C19.3157 18.3558 19.9404 18.9853 20.5649 19.6148C21.2173 20.2708 21.8724 20.9235 22.522 21.5818C23.0278 22.0933 23.3267 22.7802 23.3593 23.5061C23.3918 24.232 23.1557 24.9439 22.6978 25.5004C22.1268 26.1888 21.3872 26.5254 20.5526 26.5397Z" fill="#3450A2"/>
<path d="M34.9011 23.0899C34.9978 22.8705 35.1495 22.681 35.3409 22.5405C35.4873 22.4286 35.6649 22.3672 35.8479 22.3653C36.0835 22.357 36.3175 22.4079 36.5293 22.5137C36.6919 22.5952 36.8523 22.6838 37.0072 22.7798C37.7041 23.2123 38.4432 23.5396 39.2424 23.7157C39.6642 23.8086 40.0932 23.8643 40.5244 23.8821C40.8042 23.8942 41.0836 23.8988 41.3635 23.8821C41.8573 23.8562 42.3425 23.7894 42.8049 23.5984C43.1257 23.4677 43.4137 23.2878 43.6345 23.0101C43.9012 22.6745 43.9979 22.2851 43.9652 21.8619C43.9384 21.5179 43.764 21.2523 43.5068 21.0395C43.3525 20.9143 43.183 20.8099 43.0026 20.7289C42.5517 20.5284 42.0834 20.3717 41.6038 20.2607C41.1336 20.1457 40.6598 20.0456 40.1877 19.9362C39.4123 19.7577 38.6481 19.5398 37.9108 19.2343C37.5809 19.1001 37.2619 18.9395 36.9568 18.7541C36.6512 18.5679 36.3677 18.3463 36.1118 18.0939C35.6619 17.6508 35.3477 17.0839 35.2073 16.4621C35.0069 15.5948 35.0215 14.7316 35.3031 13.8809C35.5094 13.2734 35.8432 12.7192 36.2813 12.257C36.9354 11.5501 37.735 11.0814 38.6272 10.7634C39.3791 10.5004 40.166 10.3567 40.9605 10.3374C41.5961 10.3133 42.2325 10.3452 42.8626 10.4329C44.1347 10.616 45.3158 11.0397 46.3576 11.819C46.4484 11.8871 46.5393 11.958 46.6247 12.0345C47.0335 12.3933 47.1698 12.856 47.1058 13.3886C47.0637 13.7533 46.8921 14.0896 46.6233 14.3339C46.5251 14.431 46.4073 14.5051 46.2782 14.551C46.149 14.5969 46.0116 14.6134 45.8755 14.5995C45.686 14.5871 45.5007 14.5365 45.3304 14.4507C45.1623 14.3617 44.996 14.2699 44.8348 14.1693C44.4043 13.8958 43.9549 13.6547 43.49 13.448C43.0837 13.2762 42.6553 13.1645 42.218 13.1165C41.8195 13.0703 41.4179 13.0576 41.0173 13.0785C40.4762 13.1031 39.9502 13.2023 39.4631 13.46C39.3214 13.5337 39.1881 13.6231 39.0656 13.7266C38.5841 14.1359 38.4042 14.6662 38.4841 15.2948C38.5042 15.4527 38.5546 15.6049 38.6326 15.7427C38.7106 15.8805 38.8145 16.0012 38.9384 16.0978C39.1242 16.2446 39.3282 16.3658 39.5449 16.4584C39.8939 16.607 40.2524 16.7309 40.618 16.8293C41.1781 16.992 41.7496 17.1074 42.3148 17.2498C43.1525 17.4616 43.9766 17.7133 44.768 18.0772C45.1847 18.2624 45.5806 18.4928 45.9491 18.7643C46.4122 19.1044 46.7841 19.5577 47.0308 20.0827C47.1985 20.448 47.3033 20.84 47.3406 21.2416C47.4138 21.9662 47.347 22.6754 47.0899 23.3606C46.8571 23.9756 46.4881 24.5274 46.0118 24.9729C45.4503 25.5093 44.7911 25.8801 44.0724 26.1462C43.4669 26.369 42.8362 26.5125 42.1953 26.5732C40.7615 26.719 39.3138 26.6077 37.9176 26.2445C37.2849 26.0859 36.6743 25.8464 36.1004 25.5315C35.8154 25.3702 35.5446 25.1841 35.2909 24.9752C35.1546 24.8645 35.0265 24.7435 34.9433 24.5831C34.683 24.0917 34.6912 23.5929 34.9011 23.0899Z" fill="#3450A2"/>
<path d="M49.5813 18.4828V12.1104C49.5813 12.0335 49.5813 11.9561 49.5854 11.8786C49.6276 11.219 49.9942 10.729 50.6152 10.5241C51.0284 10.3859 51.4724 10.3754 51.8914 10.4939C52.5274 10.6683 52.9063 11.1726 52.9331 11.8485C52.9331 11.9102 52.9331 11.9718 52.9331 12.0339C52.9331 13.5016 52.9331 14.9696 52.9331 16.4379C52.9331 16.5149 52.9372 16.5918 52.9394 16.6697C52.9394 16.6883 52.9494 16.6998 52.968 16.6985C52.9824 16.698 52.9963 16.6931 53.008 16.6845C53.0247 16.6684 53.0399 16.6507 53.0535 16.6317C53.6068 15.8979 54.3377 15.4449 55.2127 15.2317C56.0389 15.0209 56.9038 15.0257 57.7277 15.2456C58.6731 15.5001 59.3409 16.0949 59.7525 16.9951C59.9656 17.4615 60.0851 17.9552 60.1573 18.4614C60.2116 18.8515 60.2383 19.245 60.2372 19.6389C60.2372 21.4079 60.2372 23.1768 60.2372 24.9455C60.2424 25.1077 60.2271 25.2698 60.1918 25.4281C60.0473 25.9978 59.6798 26.3436 59.1338 26.4943C58.7589 26.5981 58.3638 26.5981 57.9889 26.4943C57.3307 26.3172 56.9336 25.8031 56.8986 25.0966C56.8954 25.0271 56.8986 24.9575 56.8986 24.888C56.8986 23.1731 56.8986 21.4578 56.8986 19.7423C56.9042 19.4564 56.8726 19.1709 56.8046 18.8935C56.7779 18.7889 56.7437 18.6865 56.7024 18.5871C56.6292 18.4083 56.5173 18.2487 56.3752 18.1202C56.233 17.9918 56.0642 17.8978 55.8814 17.8453C55.5897 17.7594 55.2845 17.7316 54.9824 17.7633C54.4268 17.8096 53.9411 18.0173 53.5545 18.4383C53.2584 18.7632 53.061 19.1689 52.9862 19.606C52.9492 19.8112 52.9314 20.0195 52.9331 20.2281C52.9331 21.7734 52.9331 23.3186 52.9331 24.8639C52.9341 24.9952 52.9262 25.1264 52.9094 25.2565C52.8186 25.9055 52.4583 26.3228 51.8418 26.4947C51.4378 26.6111 51.009 26.6023 50.6098 26.4697C50.0496 26.2843 49.7103 25.8935 49.6103 25.295C49.5882 25.15 49.5784 25.0032 49.5808 24.8565C49.5814 22.7314 49.5816 20.6069 49.5813 18.4828Z" fill="#3450A2"/>
<path d="M18.5228 14.6244C17.7655 14.6119 17.094 14.3402 16.5389 13.7807L14.6 11.8263L12.7428 9.95341C12.1127 9.31831 11.4708 8.69248 10.8547 8.04579C10.0738 7.22851 9.83302 6.24804 10.1533 5.16235C10.4736 4.07665 11.2077 3.404 12.2885 3.17222C13.2748 2.96036 14.1484 3.23619 14.8739 3.9603C15.534 4.61626 16.1877 5.28149 16.8446 5.9444L18.67 7.7848C19.2948 8.41495 19.9195 9.04464 20.544 9.67387C21.98 11.1249 21.5207 13.6773 19.5204 14.4487C19.2006 14.5665 18.8629 14.626 18.5228 14.6244Z" fill="#3450A2"/>
<path d="M18.382 29.0064C18.3684 30.4175 17.4157 31.5709 16.1105 31.8342C15.1111 32.0359 14.2397 31.7508 13.5088 31.0267C13.2426 30.7629 12.98 30.4959 12.7169 30.2298C12.1903 29.697 11.6639 29.164 11.1378 28.6309C10.5133 28.0011 9.88849 27.3725 9.26338 26.7451C8.99443 26.4739 8.71822 26.2097 8.457 25.9301C7.69197 25.1119 7.45028 24.1416 7.76102 23.0652C8.07176 21.9888 8.79545 21.312 9.86305 21.0718C10.8434 20.8503 11.7257 21.1052 12.4562 21.8219C12.92 22.2762 13.3743 22.7407 13.8318 23.202C14.2893 23.6632 14.734 24.1152 15.186 24.5714C15.783 25.174 16.3805 25.7759 16.9787 26.377C17.1727 26.5722 17.3708 26.7632 17.5611 26.962C18.1054 27.5276 18.3716 28.2137 18.382 29.0064Z" fill="#3450A2"/>
<path d="M100.716 20.4316C100.716 19.659 100.716 18.8864 100.716 18.1137C100.716 17.8852 100.713 17.9023 100.501 17.9023C100.229 17.9023 99.956 17.9023 99.6834 17.9023C99.4708 17.9033 99.2599 17.8632 99.0619 17.7841C98.688 17.6353 98.4559 17.3586 98.3805 16.9543C98.3349 16.7183 98.3406 16.4749 98.3973 16.2413C98.435 16.067 98.516 15.9054 98.6324 15.7721C98.7489 15.6389 98.8969 15.5383 99.0624 15.4801C99.2826 15.3958 99.5159 15.3526 99.7511 15.3527C99.9859 15.3527 100.22 15.3527 100.455 15.3527C100.501 15.3527 100.546 15.3527 100.592 15.3527C100.701 15.349 100.711 15.3397 100.715 15.2363C100.715 15.1821 100.715 15.1278 100.715 15.0741V13.6138C100.713 13.467 100.727 13.3204 100.756 13.1766C100.872 12.6398 101.191 12.2815 101.694 12.1072C102.141 11.948 102.628 11.946 103.077 12.1016C103.631 12.2898 103.948 12.6931 104.036 13.28C104.055 13.4183 104.064 13.5577 104.063 13.6972C104.066 14.1608 104.063 14.6244 104.063 15.088C104.063 15.1417 104.063 15.196 104.063 15.2498C104.067 15.3378 104.082 15.3541 104.175 15.3541C104.667 15.3541 105.159 15.3541 105.652 15.3541C105.856 15.3551 106.06 15.3827 106.257 15.4361C106.741 15.5641 107.051 15.9219 107.094 16.4379C107.106 16.5612 107.107 16.6852 107.098 16.8088C107.05 17.3776 106.705 17.7276 106.187 17.8513C106.025 17.8895 105.859 17.9079 105.692 17.906C105.23 17.906 104.768 17.906 104.307 17.906C104.246 17.906 104.186 17.906 104.125 17.9102C104.11 17.9111 104.096 17.9178 104.085 17.929C104.074 17.9401 104.068 17.955 104.068 17.9705C104.063 18.0167 104.061 18.0631 104.061 18.1096C104.061 19.6316 104.061 21.1534 104.061 22.6749C104.061 22.7908 104.071 22.9065 104.091 23.0207C104.189 23.5849 104.527 23.9316 105.133 24.015C105.35 24.0447 105.57 24.0526 105.789 24.0679C105.978 24.0757 106.166 24.104 106.349 24.1523C106.443 24.179 106.535 24.2134 106.625 24.2552C106.749 24.3133 106.859 24.3998 106.946 24.5081C107.032 24.6163 107.093 24.7435 107.124 24.8796C107.172 25.0672 107.184 25.2622 107.161 25.4545C107.145 25.6232 107.091 25.7858 107.002 25.9294C106.914 26.0729 106.794 26.1935 106.652 26.2815C106.471 26.3948 106.271 26.4714 106.061 26.5068C105.8 26.5546 105.534 26.5688 105.27 26.549C104.96 26.5262 104.651 26.5026 104.343 26.4715C103.844 26.424 103.355 26.3056 102.889 26.1197C101.803 25.6751 101.134 24.8648 100.86 23.7091C100.763 23.2877 100.715 22.856 100.717 22.4231L100.716 20.4316Z" fill="#3450A2"/>
<path d="M139.076 20.9704C139.074 20.1666 139.162 19.4406 139.403 18.7415C140.028 16.9364 141.266 15.8062 143.066 15.3013C143.571 15.1658 144.091 15.0937 144.613 15.0867C145.73 15.0505 146.837 15.3007 147.834 15.8145C147.989 15.8953 148.139 15.9856 148.283 16.0848C148.647 16.3305 148.844 16.68 148.882 17.1236C148.903 17.3469 148.888 17.5722 148.836 17.7903C148.808 17.9106 148.764 18.0263 148.704 18.1342C148.497 18.5111 148.18 18.6771 147.759 18.6275C147.593 18.6098 147.431 18.5654 147.279 18.4958C147.011 18.3707 146.744 18.2436 146.476 18.1176C146.332 18.0499 146.189 17.9785 146.044 17.915C145.61 17.7184 145.155 17.6758 144.689 17.7263C144.47 17.7476 144.255 17.7966 144.049 17.8723C143.485 18.0837 143.095 18.4819 142.84 19.0289C142.706 19.3236 142.616 19.637 142.572 19.9589C142.475 20.6014 142.486 21.2562 142.606 21.8948C142.674 22.2837 142.817 22.655 143.027 22.987C143.279 23.3875 143.659 23.6869 144.102 23.8344C144.658 24.0242 145.258 24.0363 145.822 23.8691C146.054 23.801 146.271 23.6888 146.49 23.5822C146.769 23.4459 147.051 23.3133 147.332 23.1812C147.512 23.0995 147.708 23.0584 147.905 23.0607C148.031 23.0582 148.155 23.0851 148.269 23.1392C148.382 23.1934 148.482 23.2734 148.561 23.3731C148.684 23.5207 148.773 23.6939 148.824 23.8807C148.901 24.1569 148.915 24.4473 148.866 24.73C148.837 24.9103 148.771 25.0822 148.672 25.2341C148.573 25.386 148.442 25.5145 148.29 25.6108C147.96 25.8294 147.607 26.0097 147.238 26.1485C146.427 26.4521 145.57 26.609 144.706 26.6121C144.025 26.6264 143.345 26.5348 142.69 26.3405C142.144 26.177 141.63 25.9218 141.167 25.5853C140.333 24.9766 139.769 24.1635 139.428 23.1835C139.255 22.68 139.147 22.1558 139.106 21.624C139.084 21.4069 139.074 21.1887 139.076 20.9704Z" fill="#3450A2"/>
<path d="M80.3826 18.4933C80.3826 16.3692 80.3826 14.2453 80.3826 12.1215C80.3805 11.9515 80.3938 11.7817 80.4226 11.6143C80.4543 11.4192 80.5281 11.2336 80.6387 11.0712C80.7494 10.9088 80.894 10.7735 81.0622 10.6751C81.2376 10.567 81.4313 10.4934 81.6333 10.4582C81.9967 10.3947 82.357 10.396 82.71 10.5166C83.2956 10.7168 83.6463 11.1192 83.7181 11.7566C83.7293 11.8564 83.735 11.9567 83.7349 12.057C83.7349 16.3436 83.7349 20.6301 83.7349 24.9166C83.7349 25.0564 83.7237 25.196 83.7012 25.3339C83.6308 25.7743 83.4014 26.1015 83.0257 26.325C82.8285 26.441 82.6106 26.5156 82.3847 26.5443C82.0108 26.5948 81.6433 26.5698 81.2917 26.4228C80.7992 26.216 80.493 25.8517 80.4117 25.3056C80.4026 25.2449 80.3944 25.1832 80.3912 25.1202C80.3858 25.02 80.3826 24.9194 80.3826 24.8193C80.3826 22.7113 80.3826 20.6026 80.3826 18.4933Z" fill="#3450A2"/>
<path d="M62.7105 20.8445C62.7105 19.5079 62.7105 18.1714 62.7105 16.8351C62.7095 16.6956 62.7177 16.5562 62.735 16.4179C62.8059 15.8898 63.0862 15.5185 63.5559 15.3053C63.8111 15.1843 64.0885 15.1199 64.3699 15.1164C64.6513 15.1128 64.9302 15.1703 65.1882 15.2849C65.6807 15.4949 65.9741 15.8741 66.0382 16.423C66.0528 16.5378 66.0608 16.6534 66.0623 16.7692C66.0623 19.4889 66.0623 22.2085 66.0623 24.9282C66.0618 25.0673 66.05 25.206 66.0268 25.3431C65.9555 25.7738 65.7302 26.0959 65.3631 26.3166C65.1601 26.4383 64.9345 26.5156 64.7007 26.5438C64.3191 26.5929 63.9439 26.5646 63.5877 26.407C63.1157 26.1984 62.8199 25.8414 62.7423 25.3143C62.7241 25.1844 62.7136 25.0534 62.7109 24.9222C62.7055 24.7367 62.7109 24.5513 62.7109 24.3659L62.7105 20.8445Z" fill="#3450A2"/>
<path d="M137.544 24.6187C137.541 25.2506 137.319 25.7776 136.829 26.1772C136.547 26.4031 136.204 26.5361 135.847 26.5588C135.597 26.5823 135.346 26.5601 135.104 26.4934C134.763 26.3957 134.458 26.1981 134.226 25.9252C133.994 25.6522 133.845 25.3158 133.798 24.9576C133.749 24.5691 133.767 24.1843 133.923 23.82C134.188 23.2025 134.643 22.8233 135.3 22.7074C135.606 22.6479 135.922 22.6638 136.221 22.7537C136.96 22.9855 137.379 23.5033 137.516 24.2706C137.524 24.324 137.53 24.3779 137.532 24.4319C137.537 24.4954 137.54 24.557 137.544 24.6187Z" fill="#3450A2"/>
<path d="M64.3591 9.92054C64.6552 9.91541 64.95 9.96246 65.2304 10.0596C65.9033 10.3002 66.2962 10.8607 66.2994 11.5894C66.3033 11.7134 66.2966 11.8375 66.2794 11.9603C66.1772 12.5592 65.8428 12.9662 65.2931 13.1864C64.9529 13.3187 64.5877 13.3701 64.2251 13.3366C64.0213 13.3258 63.8194 13.2907 63.6236 13.2319C62.9421 13.0089 62.5306 12.4739 62.4947 11.7456C62.4871 11.6063 62.493 11.4666 62.5124 11.3284C62.601 10.7035 62.9476 10.2919 63.5168 10.0698C63.7861 9.96737 64.0717 9.91675 64.3591 9.92054Z" fill="#3450A2"/>
<path d="M34.9011 23.0898C34.9082 23.1353 34.9009 23.1819 34.8802 23.2229C34.7321 23.6526 34.7371 24.0768 34.9257 24.4949C34.9344 24.5233 34.9395 24.5528 34.9407 24.5826C34.8575 24.5394 34.8398 24.4504 34.8153 24.374C34.6818 23.9861 34.6898 23.5621 34.838 23.1798C34.8512 23.1445 34.8612 23.1061 34.9011 23.0898Z" fill="#3450A2"/>
<path d="M131.505 16.7472C131.505 16.7009 131.505 16.6545 131.505 16.6082C131.48 15.9531 131.092 15.4186 130.481 15.2225C130.03 15.0725 129.543 15.0851 129.1 15.2582C128.635 15.4376 128.339 15.7779 128.226 16.2781C128.2 16.4067 128.187 16.5379 128.187 16.6693C128.187 16.7106 128.21 16.7621 128.156 16.7936C128.1 16.7769 128.083 16.7213 128.053 16.68C127.954 16.5343 127.843 16.3967 127.723 16.2684C127.199 15.7227 126.562 15.3876 125.84 15.2114C125.189 15.0585 124.515 15.0407 123.857 15.159C122.844 15.3315 121.984 15.7974 121.289 16.5687C120.615 17.317 120.22 18.2084 120.031 19.1995C119.904 19.8913 119.871 20.5977 119.934 21.2986C119.981 21.9546 120.132 22.5984 120.382 23.2048C120.687 23.9345 121.123 24.5682 121.726 25.0735C122.373 25.6169 123.158 25.9603 123.99 26.0633C124.649 26.1509 125.304 26.1411 125.949 25.964C126.84 25.7188 127.589 25.2557 128.109 24.4556C128.128 24.4264 128.138 24.3814 128.188 24.3897C128.196 24.4023 128.208 24.4138 128.208 24.4259C128.208 24.8352 128.208 25.2446 128.201 25.6539C128.197 25.8082 128.183 25.9621 128.161 26.1147C128.123 26.4063 128.035 26.6887 127.901 26.9491C127.624 27.479 127.182 27.7966 126.626 27.9528C125.843 28.1725 125.054 28.1544 124.266 27.9778C123.778 27.8684 123.308 27.6997 122.84 27.5198C122.572 27.4142 122.299 27.3236 122.022 27.2482C121.861 27.2034 121.695 27.1835 121.528 27.1893C121.402 27.1927 121.279 27.2254 121.168 27.2849C121.057 27.3443 120.961 27.429 120.887 27.5323C120.813 27.631 120.754 27.7404 120.711 27.8568C120.642 28.0614 120.609 28.2772 120.615 28.4938C120.614 28.7743 120.704 29.0472 120.871 29.2698C121.03 29.4781 121.23 29.6493 121.458 29.7719C122.12 30.1469 122.832 30.3745 123.574 30.5071C124.059 30.5929 124.549 30.6435 125.041 30.6587C125.822 30.6851 126.599 30.655 127.369 30.508C127.982 30.3912 128.572 30.2039 129.124 29.9026C130.099 29.369 130.781 28.5735 131.159 27.5105C131.392 26.8469 131.509 26.1468 131.505 25.4421C131.508 22.5429 131.508 19.6446 131.505 16.7472ZM127.981 21.9467C127.885 22.224 127.743 22.4822 127.56 22.7097C127.289 23.0475 126.922 23.2905 126.51 23.4051C125.99 23.5564 125.439 23.5564 124.92 23.4051C124.193 23.1919 123.714 22.6926 123.446 21.9787C123.332 21.6589 123.264 21.324 123.243 20.9843C123.202 20.5064 123.238 20.0249 123.349 19.5588C123.432 19.1964 123.59 18.8565 123.813 18.5621C124.13 18.1417 124.586 17.8536 125.096 17.7518C125.482 17.6688 125.881 17.6642 126.269 17.7384C127.071 17.8918 127.611 18.3739 127.928 19.1291C128.047 19.422 128.123 19.7313 128.153 20.047C128.173 20.2324 128.179 20.4178 128.188 20.5569C128.176 21.0603 128.137 21.5128 127.981 21.9467Z" fill="#3450A2"/>
<path d="M97.3074 12.059C97.308 11.9505 97.3011 11.842 97.287 11.7345C97.2184 11.2204 96.9499 10.8453 96.4965 10.6219C95.9591 10.3567 95.3994 10.3475 94.842 10.5482C94.6687 10.6082 94.5101 10.7055 94.3769 10.8335C94.2436 10.9614 94.1389 11.1171 94.0697 11.2899C93.994 11.4759 93.9549 11.6754 93.9547 11.8768C93.9547 11.9774 93.9547 12.0775 93.9547 12.1781V16.5112C93.9547 16.5807 93.9547 16.6502 93.9547 16.7198C93.9543 16.7267 93.9524 16.7335 93.9493 16.7398C93.9462 16.746 93.9418 16.7515 93.9365 16.7559C93.9125 16.774 93.8943 16.7559 93.8816 16.7369C93.8498 16.6938 93.8212 16.6484 93.7907 16.6043C93.6766 16.4406 93.5474 16.2883 93.405 16.1496C92.9902 15.751 92.489 15.4581 91.9422 15.2947C91.2225 15.0727 90.462 15.025 89.7211 15.1557C88.5004 15.355 87.5332 15.9739 86.8168 16.9988C86.3657 17.6437 86.0858 18.365 85.9228 19.1359C85.8068 19.719 85.7542 20.3133 85.766 20.9082C85.7651 21.5034 85.8344 22.0965 85.9723 22.6749C86.2235 23.6989 86.671 24.6145 87.426 25.3548C88.0309 25.9581 88.7972 26.3654 89.6285 26.5253C90.1421 26.6262 90.6683 26.6428 91.1871 26.5745C91.6082 26.5218 92.0193 26.4058 92.4069 26.23C92.9936 25.9689 93.4962 25.5443 93.857 25.0048C93.8811 24.9682 93.897 24.9209 93.9479 24.9149C93.9534 24.919 93.9629 24.9223 93.9633 24.9265C93.9733 25.0104 93.9843 25.0938 93.9906 25.1777C94.0129 25.4804 94.1263 25.7687 94.3154 26.0031C94.5045 26.2375 94.76 26.4064 95.0469 26.4869C95.456 26.6122 95.8932 26.6045 96.298 26.4651C96.7895 26.2931 97.1125 25.9449 97.2484 25.428C97.2907 25.2556 97.3107 25.0782 97.3079 24.9005C97.3079 20.6186 97.3077 16.3381 97.3074 12.059ZM93.818 22.1955C93.7381 22.5101 93.6053 22.8081 93.4255 23.0763C93.112 23.5306 92.6954 23.8245 92.1557 23.9372C91.7556 24.0258 91.3417 24.0275 90.9409 23.9423C90.3544 23.8134 89.9106 23.4787 89.593 22.9646C89.3702 22.595 89.2233 22.1831 89.1614 21.7537C89.0451 21.0596 89.0574 20.3493 89.1978 19.6598C89.2681 19.303 89.405 18.9633 89.6012 18.6594C89.9646 18.1063 90.4803 17.8031 91.1204 17.7137C91.4584 17.6682 91.8016 17.6804 92.1357 17.7498C92.7354 17.8694 93.1856 18.2018 93.5059 18.7266C93.7167 19.0724 93.8316 19.4553 93.9016 19.8526C93.9543 20.1759 93.9809 20.503 93.9811 20.8308C93.9743 21.3004 93.9384 21.7533 93.818 22.1955Z" fill="#3450A2"/>
<path d="M161.465 20.4832C161.434 19.728 161.301 18.996 161.011 18.2965C160.749 17.6435 160.354 17.0555 159.85 16.5725C158.995 15.7612 157.967 15.3287 156.823 15.1609C156.254 15.0775 155.677 15.0592 155.103 15.1062C154.499 15.1492 153.904 15.2781 153.334 15.4891C152.713 15.7181 152.142 16.0685 151.653 16.5205C150.972 17.157 150.515 17.9377 150.248 18.8384C150.062 19.4829 149.972 20.1522 149.981 20.8239C149.976 21.5985 150.075 22.3537 150.328 23.082C150.677 24.0861 151.263 24.9122 152.114 25.5343C152.932 26.1337 153.857 26.4503 154.851 26.5639C155.393 26.6265 155.94 26.6302 156.483 26.575C157.079 26.5206 157.664 26.3802 158.221 26.1578C158.879 25.8965 159.477 25.4966 159.974 24.984C160.738 24.1853 161.183 23.2201 161.369 22.1256C161.459 21.5832 161.491 21.0326 161.465 20.4832ZM158.149 20.7966C158.159 21.2644 158.111 21.7318 158.006 22.1873C157.925 22.5496 157.772 22.8913 157.557 23.1914C157.235 23.6276 156.796 23.8664 156.279 23.9591C155.868 24.0339 155.446 24.0237 155.039 23.9289C154.389 23.7764 153.934 23.3833 153.649 22.7751C153.468 22.3866 153.382 21.9717 153.338 21.548C153.276 20.9719 153.29 20.3898 153.379 19.8175C153.427 19.4969 153.519 19.1847 153.652 18.8903C153.936 18.2793 154.395 17.889 155.045 17.7411C155.548 17.6187 156.074 17.6368 156.568 17.7935C157.101 17.966 157.487 18.3141 157.749 18.8106C157.944 19.1754 158.039 19.5718 158.095 19.9788C158.134 20.2495 158.152 20.523 158.147 20.7966H158.149Z" fill="#3450A2"/>
<path d="M117.964 19.9114C117.964 19.7107 117.961 19.5099 117.949 19.3088C117.909 18.6417 117.796 17.9908 117.536 17.3719C117.235 16.6525 116.762 16.0883 116.09 15.7031C115.819 15.549 115.532 15.4271 115.234 15.3396C114.44 15.1013 113.627 15.054 112.807 15.093C112.202 15.1235 111.601 15.2077 111.01 15.3447C110.42 15.481 109.843 15.665 109.299 15.9474C109.073 16.0569 108.866 16.2028 108.685 16.3794C108.554 16.5088 108.458 16.6712 108.407 16.8504C108.312 17.1873 108.325 17.5463 108.444 17.8754C108.615 18.3515 109.012 18.6027 109.508 18.5605C109.726 18.5348 109.939 18.4752 110.139 18.3839C110.899 18.0696 111.675 17.8179 112.486 17.6862C112.883 17.6182 113.288 17.6268 113.682 17.7117C114.201 17.8267 114.545 18.135 114.681 18.6676C114.694 18.7195 114.707 18.7724 114.718 18.8248C114.771 19.0682 114.771 19.3152 114.769 19.5628C114.766 19.8785 114.801 19.8446 114.487 19.8409C113.487 19.8335 112.488 19.8562 111.496 19.98C111.014 20.0351 110.539 20.1316 110.074 20.2684C109.725 20.3721 109.391 20.523 109.081 20.7171C108.583 21.0251 108.221 21.5183 108.072 22.093C108.018 22.2942 107.983 22.4999 107.965 22.7077C107.915 23.238 107.965 23.7577 108.152 24.257C108.49 25.1521 109.106 25.7821 109.949 26.1915C110.494 26.458 111.079 26.5823 111.681 26.6087C112.161 26.6291 112.635 26.5818 113.09 26.4209C113.805 26.1692 114.369 25.7316 114.714 25.0302C114.736 24.9987 114.76 24.969 114.786 24.9412C114.794 25.0622 114.796 25.1378 114.805 25.2124C114.873 25.8503 115.289 26.3579 115.877 26.5072C116.231 26.6001 116.604 26.5932 116.954 26.4872C117.5 26.3231 117.818 25.9462 117.929 25.3807C117.954 25.243 117.964 25.1033 117.962 24.9635C117.963 23.2797 117.964 21.5957 117.964 19.9114ZM114.771 21.902C114.781 22.3374 114.683 22.7684 114.483 23.1537C113.936 24.1851 112.905 24.3691 112.215 24.2055C111.951 24.1445 111.711 24.0016 111.53 23.7963C111.349 23.591 111.235 23.3335 111.203 23.0591C111.185 22.9363 111.183 22.8117 111.195 22.6882C111.241 22.271 111.461 21.9929 111.827 21.8227C112.071 21.717 112.328 21.6455 112.59 21.6099C113.272 21.4973 113.962 21.4973 114.651 21.5029C114.753 21.5029 114.768 21.5209 114.77 21.6243C114.774 21.7166 114.772 21.8093 114.772 21.902H114.771Z" fill="#3450A2"/>
<path d="M71.6097 21.5487C73.5089 21.5487 75.4085 21.5487 77.3084 21.5487C77.437 21.5499 77.5654 21.5411 77.6927 21.5223C78.0162 21.4709 78.2283 21.2845 78.3287 20.9702C78.3543 20.8813 78.3719 20.7902 78.3814 20.6981C78.4064 20.5126 78.39 20.3272 78.3814 20.1418C78.3437 19.261 78.1661 18.4131 77.7631 17.6241C77.1371 16.3975 76.1681 15.6052 74.8588 15.2566C73.9652 15.0188 73.0612 15.0188 72.1607 15.2172C71.2055 15.4215 70.3316 15.9115 69.6503 16.6246C68.9325 17.3701 68.4814 18.2685 68.252 19.2846C68.1325 19.8434 68.0788 20.4147 68.0921 20.9864C68.0998 21.7022 68.1975 22.4017 68.4305 23.079C68.8894 24.4138 69.7436 25.3873 70.9932 25.9995C71.7755 26.382 72.6096 26.5512 73.4709 26.6022C74.1823 26.6373 74.8949 26.5652 75.5857 26.3885C76.2053 26.2437 76.8066 26.0271 77.3779 25.7427C77.5619 25.6513 77.7321 25.5336 77.8835 25.3932C78.1199 25.1712 78.2738 24.8727 78.3191 24.5481C78.3644 24.2236 78.2983 23.8931 78.132 23.6126C78.0735 23.513 78.0004 23.4231 77.9153 23.346C77.792 23.2296 77.635 23.157 77.4678 23.1393C77.3246 23.1231 77.1797 23.1311 77.039 23.1629C76.8267 23.219 76.619 23.2916 76.4175 23.3799C76.0254 23.5426 75.6361 23.7113 75.2331 23.8462C74.5547 24.0767 73.8281 24.1176 73.1288 23.9649C72.6168 23.855 72.1798 23.6075 71.8682 23.1634C71.5365 22.6915 71.4039 22.1495 71.3326 21.577C71.4439 21.5334 71.5274 21.5487 71.6097 21.5487ZM71.3598 19.572C71.4052 19.2345 71.5013 18.9062 71.6447 18.5985C71.8764 18.1248 72.218 17.7641 72.7113 17.5787C73.2123 17.388 73.7623 17.3795 74.2687 17.5546C74.7848 17.7275 75.1155 18.1016 75.3249 18.5999C75.4044 18.8084 75.467 19.0231 75.5121 19.242C75.5184 19.439 75.6293 19.6291 75.5489 19.8317C75.4812 19.834 75.4126 19.8386 75.3449 19.8386H71.5801C71.3148 19.8419 71.3148 19.8627 71.3598 19.572Z" fill="#3450A2"/>
<path d="M75.5489 19.8345C75.542 19.7363 75.5348 19.6375 75.5275 19.5392C75.5202 19.441 75.4916 19.3445 75.5121 19.2449C75.523 19.2551 75.5407 19.2643 75.5429 19.2759C75.5791 19.4319 75.5994 19.5913 75.6034 19.7516C75.6029 19.7914 75.5984 19.8281 75.5489 19.8345Z" fill="#3450A2"/>
</svg>
